<svg xmlns="http://www.w3.org/2000/svg" viewBox="0 0 178.67 249.95" id="cute-alphabet-i-animal"><g><g><path fill="#fff" d="M20.39,246.61l-.56-65.22c-1.14-.74-2.25-1.5-3.35-2.28-6.4-4.54-10-10.26-10.78-17-.53-4.75.07-13.9,10.07-21.82l.76-.6q-2.87-1.77-5.61-3.72c-6.4-4.54-10-10.26-10.78-17-.54-4.75.06-13.9,10.06-21.83,1.36-1.07,2.76-2.1,4.19-3.07-.61-.41-1.2-.82-1.79-1.24-6.4-4.54-10-10.26-10.78-17C1.29,71.08,1.89,61.93,11.89,54a74.57,74.57,0,0,1,8.62-5.89,37.29,37.29,0,0,1,2.25-5.57l3.08-8.33a19.44,19.44,0,0,1,20.5-12.54L50,22.1c1.11-.2,2.24-.35,3.38-.45C54,20.9,54.87,19.82,55.5,19a68.93,68.93,0,0,1,4.78-5.72C68.46,4.72,78.18,0,87.66,0A28.38,28.38,0,0,1,97.5,1.75c6.11,2.26,10.21,6.15,12.92,8.74,2,1.94,6.14,5.37,11.4,9.41a26.67,26.67,0,0,1,5.05-.48,27.5,27.5,0,0,1,26.4,20.19l.52.58c4.53,1.81,20,7.66,24,23.94a30.4,30.4,0,0,1-.61,16.6,34.58,34.58,0,0,1-2.46,5.9,39.32,39.32,0,0,1-2.84,4.58,49.85,49.85,0,0,1-11,11.06c-1.47,1.1-2.9,2.09-4.29,3A78.4,78.4,0,0,1,127.76,117L121.6,250Z"></path><path fill="#fff" d="M20.93,121.85a90.64,90.64,0,0,0,15.78,9l.14,16.55a55.45,55.45,0,0,0-10.33,6.48c-1.9,1.5-3.92,3.67-3.62,6.33.24,2.2,2,3.67,3.59,4.81a90.77,90.77,0,0,0,10.57,6.45l.5,58.42,67.54,2.23,2.33-50.19.26-5.79,3.48-75a61.83,61.83,0,0,0,35.62-10.08c1.22-.84,2.48-1.72,3.79-2.68a33.36,33.36,0,0,0,7.24-7.24,23.81,23.81,0,0,0,1.56-2.52,17.84,17.84,0,0,0,1.29-3.07,13,13,0,0,0,.31-7.27c-1.61-6.55-7.83-9.7-13.33-11.89-1.58-.63-3.08-1.3-4.55-2l-1-.45-.68-.34c-1.62-.81-3.34-1.76-5.16-2.82a10.57,10.57,0,0,0,.69-3.7,10.24,10.24,0,0,0-10.11-10.36,10,10,0,0,0-7.21,3.12A227.56,227.56,0,0,1,98.5,23c-2.1-2-4.28-4-7-5-6.65-2.45-13.81,2.13-18.71,7.26S64.62,38,56.67,38.8h0A20.69,20.69,0,0,0,36.1,59.69a54.92,54.92,0,0,0-13.46,7.88c-1.89,1.5-3.92,3.67-3.62,6.33.24,2.19,2,3.67,3.59,4.81a91.27,91.27,0,0,0,13.72,8l.13,15.34A54.75,54.75,0,0,0,21,110.71c-1.89,1.5-3.91,3.67-3.61,6.33C17.58,119.23,19.32,120.71,20.93,121.85Z"></path><path fill="#49843a" d="M47.69 134.81a88.35 88.35 0 01-26.76-13c-1.61-1.14-3.35-2.62-3.59-4.81-.3-2.66 1.72-4.83 3.61-6.33A53 53 0 0148.71 99.28C52.88 110 51 123.67 47.69 134.81zM53.25 178a88.46 88.46 0 01-26.76-13c-1.61-1.14-3.35-2.61-3.59-4.81-.3-2.66 1.72-4.83 3.62-6.33a52.85 52.85 0 0127.76-11.42C58.44 153.15 56.56 166.81 53.25 178zM49.37 91.67a88.46 88.46 0 01-26.76-13C21 77.57 19.26 76.09 19 73.9c-.3-2.66 1.73-4.83 3.62-6.33A52.86 52.86 0 0150.4 56.14C54.56 66.87 52.68 80.53 49.37 91.67z"></path><path fill="#61a553" d="M102.24,44l-1.19-.13-41.81-5A20.7,20.7,0,0,0,36.1,59.69l1.46,170.17,67.54,2.23,2.33-50.19.26-5.79,6.07-130.72Z"></path><path fill="#ffc48a" d="M113.76,45.39l-6.07,130.72c-13.19-7.63-22.94-35.3-22.94-68.29,0-28.26,7.16-52.61,17.49-63.79Z"></path><ellipse cx="126.87" cy="47.09" fill="#424242" rx="10.1" ry="10.36"></ellipse><path fill="#61a553" d="M144.36,55C131.46,49.44,106.7,30.83,98.5,23c-2.1-2-4.28-4-7-5-6.65-2.45-13.81,2.13-18.71,7.26S64.62,38,56.67,38.8C75.71,50,122.76,59.56,144.36,55Z"></path><path fill="#61a553" d="M160.67,75.54a17.84,17.84,0,0,1-1.29,3.07,23.81,23.81,0,0,1-1.56,2.52,33.36,33.36,0,0,1-7.24,7.24c-1.31,1-2.57,1.84-3.79,2.68-14.75,10-36.37,13.43-53.07,6.49-.43-.17-.85-.35-1.28-.55-11.3-5.08-21.8-14.77-25.77-27a33.26,33.26,0,0,1-1.17-4.57,20.63,20.63,0,0,1-.35-2.62C64.1,52.28,68.12,40.9,76,35.73c8.42-5.48,18.81-3.33,28.17-.75a73.06,73.06,0,0,1,15.43,6.3L121,42c4.46,2.46,8.69,5.14,13.24,7.7.59.36,1.19.7,1.81,1,.44.26.87.52,1.35.76a92.11,92.11,0,0,0,10.25,4.87c5.5,2.19,11.72,5.34,13.33,11.89A13,13,0,0,1,160.67,75.54Z"></path><ellipse cx="101.76" cy="49.44" fill="#424242" rx="14.39" ry="14.76"></ellipse><path fill="#49843a" d="M157.82,81.13a33.36,33.36,0,0,1-7.24,7.24c-1.31,1-2.57,1.84-3.79,2.68-14.75,10-36.37,13.43-53.07,6.49-.43-.17-.85-.35-1.28-.55-11.3-5.08-21.8-14.77-25.77-27a26.77,26.77,0,0,1,7.94.91c7.32,2,13.71,6.38,20.26,10.19s13.84,7.16,21.4,6.67c5.66-.35,10.94-2.82,16.11-5.16S143,78,148.63,78.13A16.49,16.49,0,0,1,157.82,81.13Z"></path></g></g></svg>